<?xml version="1.0" encoding="utf-8" ?>
<svg xmlns="http://www.w3.org/2000/svg" xmlns:xlink="http://www.w3.org/1999/xlink" width="331" height="192">
	<path fill="#009FE0" d="M308.14 62.3745C310.929 62.2961 313.715 62.4732 316.508 62.3569C316.625 62.538 316.754 62.7544 316.805 62.9656C317.153 64.4248 316.753 76.8862 316.751 79.6218L316.82 134.101C316.821 134.429 316.909 135.186 316.744 135.441L316.464 135.875C315.131 136.309 309.61 136.008 307.751 136.054C307.982 135.658 308.086 135.205 308.113 134.75C308.504 128.317 308.145 121.662 308.146 115.206L308.133 76.376C308.118 71.809 307.694 66.8976 308.14 62.3745Z"/>
	<path fill="#009FE0" d="M195.314 62.3638C203.906 62.8807 212.692 62.5579 221.307 62.5601C226.763 62.5615 233.326 63.067 238.635 62.2687C238.709 62.4254 238.778 62.584 238.835 62.7482C239.335 64.1992 239.216 70.6445 238.565 71.8996C235.454 71.3765 231.919 71.6188 228.757 71.6147C220.469 71.604 211.968 72.0791 203.714 71.5739C203.775 71.6785 203.788 71.6885 203.825 71.8238C204.297 73.5193 204.158 89.847 203.903 92.2752C203.849 92.7854 203.686 93.1834 203.401 93.6053C214.417 93.2337 225.52 94.0283 236.52 93.3516C236.631 93.5027 236.753 93.6854 236.805 93.8688C237.186 95.2253 236.972 101.762 236.38 102.878C231.533 102.103 222.454 102.643 217.135 102.636C213.043 102.63 208.018 102.169 204.036 102.726L203.624 103.364C203.643 103.401 203.664 103.436 203.682 103.474C204.247 104.651 204.208 125.525 203.673 127.01C210.98 126.866 218.311 126.95 225.621 126.932C230.413 126.92 235.34 126.672 240.117 127.03C240.139 127.077 240.159 127.123 240.182 127.169C240.285 127.373 240.386 127.567 240.454 127.786C240.879 129.159 240.966 134.802 240.344 136.006C233.992 135.494 227.353 135.832 220.978 135.83C212.297 135.827 203.515 135.583 194.847 136.058C194.863 136.03 194.881 136.003 194.895 135.974C194.919 135.926 194.94 135.876 194.963 135.828C195.731 134.212 195.253 83.237 195.234 77.0794C195.22 72.3171 194.762 67.077 195.314 62.3638Z"/>
	<path fill="#009FE0" d="M252.167 62.3741C257.528 62.5416 262.878 62.5286 268.24 62.5248C271.624 62.5223 275.112 62.3546 278.472 62.7722Q280.011 62.9538 281.507 63.3551Q283.004 63.7564 284.427 64.3691C288.437 66.1146 291.367 69.596 292.93 73.6507C294.902 78.7651 294.792 84.8831 292.531 89.8876C291.188 92.86 289.145 95.5427 286.025 96.7253C288.515 97.6706 290.661 98.9683 292.52 100.904C296.134 104.668 297.429 109.886 297.301 114.987C297.222 118.162 296.51 124.449 294.08 126.755C294.117 127.669 292.773 129.467 292.156 130.171C286.366 136.779 275.039 135.851 267.087 135.853C261.98 135.854 256.844 135.749 251.745 136.065C251.976 135.663 252.081 135.21 252.11 134.749C252.512 128.375 252.139 121.77 252.14 115.369L252.128 76.6831C252.116 72.5983 251.589 66.1951 252.167 62.3741ZM260.85 102.375C260.43 103.866 260.675 105.843 260.686 107.398C260.711 110.988 261.318 124.565 260.459 127.026C266.042 126.965 280.727 128.032 284.445 124.27C284.644 124.07 284.784 123.902 284.855 123.629C286.265 122.898 287.38 120.715 287.842 119.238C288.93 115.758 288.715 111.368 286.981 108.13C285.73 105.791 283.664 103.866 281.089 103.11C275.432 101.449 266.957 102.774 260.85 102.375ZM260.466 71.6245C260.974 73.7201 261.137 91.7241 260.365 93.4359C265.252 93.0424 279.525 94.7361 282.65 90.795C282.76 90.6552 282.796 90.549 282.853 90.3822C283.954 89.9459 284.77 88.5321 285.221 87.4827C286.517 84.4665 286.31 80.4563 285.078 77.4534C284.181 75.2658 282.624 73.3596 280.403 72.4347C276.455 70.7901 265.413 71.8778 260.466 71.6245Z"/>
	<path fill="#009FE0" d="M71.6807 4.35677C73.7099 4.01223 76.1139 4.35046 78.1718 4.48794C88.5026 5.17807 98.5222 7.08887 108.09 11.1628Q109.148 11.6024 110.196 12.068Q111.243 12.5336 112.278 13.0249Q113.314 13.5162 114.337 14.0329Q115.36 14.5497 116.37 15.0915Q117.38 15.6333 118.376 16.2Q119.372 16.7666 120.354 17.3576Q121.336 17.9487 122.303 18.5638Q123.27 19.1789 124.221 19.8177Q125.173 20.4565 126.108 21.1186Q127.044 21.7807 127.963 22.4658Q128.882 23.1508 129.783 23.8583Q130.685 24.5658 131.569 25.2953Q132.453 26.0249 133.318 26.776Q134.184 27.5272 135.031 28.2995Q135.877 29.0718 136.705 29.8648Q137.532 30.6578 138.34 31.4709Q139.147 32.2841 139.935 33.117Q140.722 33.9499 141.489 34.8019Q142.255 35.654 143 36.5247Q143.745 37.3955 144.469 38.2843Q145.192 39.1732 145.894 40.0797Q146.595 40.9861 147.274 41.9096Q147.952 42.8331 148.608 43.7731Q149.264 44.7131 149.896 45.669Q150.528 46.6249 151.137 47.5961Q151.745 48.5674 152.329 49.5533Q152.914 50.5392 153.474 51.5393Q154.033 52.5394 154.568 53.553Q155.103 54.5666 155.613 55.5931Q156.122 56.6196 156.607 57.6584Q157.091 58.6972 157.549 59.7476Q158.008 60.798 158.44 61.8594C167.331 83.9839 166.792 110.195 157.444 132.09C147.71 154.89 129.558 171.944 106.62 181.145C97.8138 184.678 78.2243 189.918 69.3234 186.069C66.8189 184.986 64.6983 183.08 63.6941 180.505C62.963 178.63 63.0289 176.624 63.8338 174.79C67.6047 166.197 79.1746 167.033 86.9167 165.754C91.0164 165.077 95.1919 163.907 99.0702 162.408C108.346 158.824 123.209 150.451 127.375 140.912C128.743 137.779 129.106 133.639 127.838 130.418C126.802 127.787 124.975 125.917 122.385 124.813C113.888 121.193 105.533 129.385 99.0303 133.737Q95.3123 136.209 91.172 137.88C80.0095 142.37 66.0726 142.209 55.0085 137.495C44.0701 132.834 35.9031 124.312 31.4967 113.293C26.612 101.079 26.915 88.1694 32.0757 76.1398C37.7571 65.4678 46.183 57.3859 57.5896 53.1173C68.8885 48.8891 81.0178 49.1939 92.0172 54.2235C105.968 60.6026 112.711 70.1586 117.92 84.0962C114.484 83.3664 110.585 83.6247 107.076 83.6243L92.3469 83.6395C83.8699 83.6518 75.1634 83.1987 66.7142 83.7571C62.7239 84.0208 58.919 84.7127 56.1781 87.8812C54.1029 90.2802 52.9182 93.7995 53.1705 96.9659Q53.2112 97.5046 53.305 98.0367Q53.3989 98.5688 53.5449 99.0889Q53.691 99.6091 53.8879 100.112Q54.0847 100.615 54.3304 101.097Q54.5761 101.578 54.8683 102.032Q55.1605 102.487 55.4962 102.91Q55.8319 103.333 56.2079 103.721Q56.5839 104.109 56.9965 104.458C59.2908 106.395 62.3374 107.475 65.2737 107.918C69.4195 108.543 73.7704 108.335 77.9543 108.336L100.057 108.149C111.33 108.056 122.865 108.753 134.1 107.843C137.057 107.603 139.472 107.034 141.456 104.671C145.09 100.342 144.464 94.0297 143.985 88.7688C142.281 70.0498 131.793 52.531 117.497 40.6263C94.7834 21.7116 61.3153 20.685 36.3543 35.7761Q32.3424 38.2329 28.6929 41.2014C24.0232 45.0066 19.1138 50.3081 12.7581 50.8551C9.92797 51.0987 6.81947 50.2854 4.63243 48.4288C3.02821 47.067 2.12882 45.2017 1.96666 43.1127C1.67038 39.2958 4.86629 35.4181 7.21907 32.6994C19.384 18.6428 37.5807 9.6948 55.6449 6.20567C60.9845 5.17431 66.2703 4.74906 71.6807 4.35677Z"/>
</svg>
